<?xml version="1.0" encoding="UTF-8"?>
<svg width="1366mm" height="760mm" version="1.1" viewBox="0 0 1366 760" xmlns="http://www.w3.org/2000/svg">
<g stroke-width=".26458">
<rect x="-124.23" y="-74.835" width="1586.5" height="939.93" rx="1.1369e-13" ry="1.1369e-13" fill="#085a91"/>
<path d="m1333.6 737.38c-104.27 99.781-302.83 31.431-396.38-29.186-93.544-60.617-82.07-113.5-106.27-176.86-24.197-63.361-84.064-137.2-77.828-209.79 6.2369-72.591 78.576-143.93 206.55-94.29 127.97 49.643 311.56 220.26 403.86 219.51 92.297-0.75006 93.295-172.87 88.804-124.97-4.4903 47.897-14.468 315.8-118.74 415.58z" fill="#085a91"/>
<path d="m-176.61 582.97c0.99787-20.705 9.4792-22.7 102.78-18.958 93.297 3.7419 271.4 13.221 476.2-20.456s436.29-110.51 603.17-144.93c166.88-34.424 269.16-26.442 340 22.452s110.26 138.69 74.584 234.24c-35.673 95.541-146.43 196.82-342 236.73-195.57 39.912-475.95 18.46-697.22-26.692-221.27-45.151-383.41-114-467.72-168.13-84.315-54.131-90.8-93.544-89.803-114.25z" fill="#dea01e"/>
</g>
</svg>
