<?xml version="1.0" encoding="UTF-8"?>
<svg enable-background="new 0 0 400 400" version="1.1" viewBox="0 0 400 400" xml:space="preserve" xmlns="http://www.w3.org/2000/svg">
<path d="m340.44 115.61c11.783 18.494 19.411 38.454 22.239 59.597 3.274 24.479 2.8015 49.128-4.8123 73.141-11.102 35.015-31.042 63.796-60.76 85.403-17.626 12.815-37.246 21.597-58.593 26.648-23.095 5.4644-46.445 5.839-69.356 1.2581-35.829-7.1635-66.46-24.538-90.765-52.275-18.559-21.18-30.823-45.54-37.207-72.986-4.7055-20.23-5.3286-40.841-1.9495-60.939 6.4418-38.311 23.999-71.118 53.555-97.141 19.097-16.813 40.904-28.437 65.186-35.37 20.054-5.7256 40.669-6.6077 61.323-4.4218 31.728 3.3579 59.963 15.456 84.756 35.449 14.441 11.645 26.704 25.293 36.383 41.636m-196.69-60.341c-12.247 4.8708-23.733 11.099-34.364 18.929-33.888 24.961-54.936 57.937-62.537 99.445-4.1404 22.609-3.1156 45.004 2.5757 67.171 5.393 21.005 14.915 40.038 28.357 57.098 13.862 17.592 30.734 31.462 50.469 42.084 18.13 9.7581 37.572 15.426 57.782 17.436 19.733 1.9625 39.455-0.010528 58.644-5.7577 22.635-6.7792 42.995-17.671 60.586-33.483 17.04-15.318 30.465-33.359 39.575-54.448 7.8482-18.169 12.538-37.126 12.86-56.983 0.15604-9.6103-0.061768-19.156-1.5648-28.795-2.6435-16.953-7.6595-33.018-15.404-48.179-11.607-22.723-27.944-41.404-48.795-56.305-24.764-17.697-52.338-27.271-82.5-28.977-22.294-1.2613-44.072 2.2461-65.685 10.764z" fill="#085a91"/>
<path d="m90.561 187.76c2.8725-21.946 11.381-40.938 25.336-57.492 10.775-12.782 23.728-22.726 39.091-29.408 21.127-9.1882 42.874-12.203 65.765-7.8199 31.517 6.0353 55.752 22.693 72.995 49.304 9.7843 15.099 14.886 32.093 16.686 50.123 2.064 20.67-2.2046 40.008-11.21 58.444-9.2136 18.862-23.041 33.551-40.799 44.725-12.143 7.6405-25.212 13.151-39.308 14.945-42.07 5.3568-78.073-6.3033-105.25-40.147-18.089-22.527-25.451-48.601-24.055-77.29 0.080452-1.6536 0.46046-3.2927 0.74863-5.3845m52.572 98.575c22.882 15.318 47.927 20.566 75.044 16.054 26.726-4.4464 47.899-18.125 64.189-39.422 15.135-19.787 21.737-42.313 20.291-67.215-1.1078-19.072-6.9947-36.621-17.931-52.135-15.11-21.434-35.496-35.455-61.219-41.74-18.676-4.5636-37.074-3.6729-55.04 2.3461-18.775 6.2902-34.805 17.038-47.465 32.574-10.708 13.14-18.628 27.864-21.395 44.442-4.1755 25.022-1.4442 49.411 11.789 71.798 2.8442 4.8117 5.7345 9.6633 11.228 13.646-0.5323-3.7939-0.6909-6.4508-1.3101-8.9957-1.0437-4.2894 1.1714-9.1143-0.64786-12.712-1.879-3.7159-1.7546-6.897-1.1699-10.472 0.47965-2.9333 2.438-6.4624 1.4209-8.6477-3.2061-6.8886 0.55093-13.334 0.5855-19.908 0.047935-9.1125 5.5507-16.938 12.677-22.944 2.2405-1.8885 4.186-4.6803 8.5728-4.8507-5.6652 8.1987-12.789 14.515-16.268 23.677 2.8901-0.35648 2.8892-3.9789 6.405-3.2793-3.3219 7.2832-7.5909 13.973-9.6653 21.863 2.7972-1.3562 2.753-5.7384 6.9031-5.2763-2.9604 8.4203-6.5421 16.275-7.8195 24.823 5.5468-4.8477 4.3218-13.886 11.55-17.787-2.0687 8.372-4.6219 16.54-5.5009 25.141-2.5944-0.63162-1.7577-2.9694-2.8319-3.8978-1.2686 9.3056 0.64989 18.514 1.2558 27.79 0.081231 1.2436 0.63975 2.1855 1.5446 3.0135 4.5348 4.1499 9.0724 8.2939 14.808 12.116z" fill="#085a91"/>
<path d="m170.01 77.966c0.36264 1.8092 0.60542 3.2851 0.92509 4.7442 0.70444 3.2153-1.5648 3.5119-3.7694 3.9182-2.2059 0.40655-4.6441 1.7456-5.5182-1.9084-2.2319-9.3303-4.5412-18.642-6.8489-28.081 3.0907-1.6328 6.3776-3.7866 8.9189-1.6265 1.9483 1.6561 2.2086 5.298 3.5367 8.922 3.5081-6.484 3.979-15.526 14.841-13.226-1.5736 4.1481-3.0697 8.2559-4.7031 12.308-0.56822 1.4098-1.4959 2.7279-0.20277 4.1275 3.4521 3.7362 6.1037 8.2911 10.936 11.027 2.7605-2.8598 3.4694-6.5531 4.8902-9.7931 2.0597-4.697 3.7845-9.5709 5.2456-14.49 1.0012-3.3708 2.9182-4.5317 6.2137-4.2088 3.4254 0.33565 7.5625-1.2756 8.9285 3.94 2.4691 9.427 5.0865 18.815 7.6271 28.165-6.0549 2.4376-8.7661 1.7253-11.015-3.1837-1.1296-2.4661-2.975-2.2933-4.9385-2.3102-2.1228-0.018265-4.7755-0.52943-5.3925 2.2905-0.86288 3.9434-3.5475 3.7718-6.4812 3.5397-1.4838-0.11737-3.1404-0.63167-4.4318-0.1677-6.8211 2.4505-12.213 1.4675-16.022-5.3257-0.93057-1.6596-2.89-2.2385-2.7393 1.3386m35.134-16.142c-0.99428 1.6411-2.5507 3.277-1.1854 5.2902 0.69853 1.03 1.9736 0.9695 3.0699-0.14641-0.18259-1.8055 0.20798-3.8118-1.8845-5.1437z" fill="#085a91"/>
<path d="m67.479 247.45c3.1297-2.2362 5.9654-4.259 9.9199-7.0798-6.0991-0.033569-10.982-0.56081-15.801 0.53084-5.0722 1.149-6.2244-2.0014-7.4038-5.8307-1.1778-3.8241-0.76301-6.28 3.5097-7.6154 7.447-2.3276 14.821-4.9017 22.165-7.5412 3.515-1.2634 3.821 1.5136 4.8371 3.4353 1.2202 2.3078 0.90413 4.2266-1.7813 5.1757-4.0606 1.4353-8.1535 2.7792-12.176 4.8707 3.965-0.23984 7.9463-0.33031 11.891-0.76077 4.0835-0.44566 5.9675 1.4446 7.2039 5.1487 1.2398 3.7146-1.3428 4.6638-3.4885 6.1397-2.4573 1.6903-4.9095 3.3878-7.8792 5.438 4.0109 0.72093 6.6541-1.3992 9.4898-2.578 3.1898-1.3259 4.7977-0.47266 5.8949 2.8456 1.089 3.2934 0.45197 4.7038-3.0017 5.7358-6.6781 1.9954-13.152 4.6638-19.788 6.8159-2.6005 0.84342-5.6826 3.1483-7.8679-0.7684-3.0398-5.4482-2.4962-9.0864 1.6086-11.92 0.82087-0.56673 1.5844-1.2166 2.6683-2.0415z" fill="#085a91"/>
<path d="m100.17 119.76c0.59367 0.37799 0.91198 0.5232 1.1381 0.75742 2.0063 2.0784 7.2661 1.566 5.342 6.7814-2.4102 6.5333-4.9905 8.4845-10.892 7.641-4.0969-0.58565-8.1464-0.8539-12.914-0.25679 3.0813 3.4855 6.8892 4.8589 10.166 6.7841 3.5023 2.0578 2.5176 4.0222 1.1801 6.5538-1.4251 2.6974-3.0698 2.8698-5.6153 1.2391-6.5596-4.2022-13.276-8.1601-19.922-12.227-2.0116-1.2308-4.5333-2.5923-2.7953-5.3531 1.875-2.9785 2.4186-7.6624 7.5531-7.362 5.3756 0.31457 10.748 0.68584 17.47 1.1193-3.7642-3.6118-7.0203-5.3522-10.29-7.0588-3.0969-1.6164-4.4753-3.6206-2.5439-7.1791 2.1065-3.8811 4.5812-2.2293 7.0137-0.77328 4.973 2.9765 9.8659 6.087 15.11 9.3338z" fill="#085a91"/>
<path d="m332.96 219.56c-1.1966 0.5856-2.0681 1.0651-4.0536 2.1575 4.9105 0.77602 8.7973 1.5435 12.721 1.9654 3.6036 0.38739 5.2829 1.6635 4.7913 5.7196-0.54596 4.5044-3.4028 3.304-5.8426 2.8609-7.6913-1.3968-15.559-1.139-23.245-2.7148-3.0754-0.63048-3.6789-2.0851-3.5497-4.7921 0.25305-5.3 2.1272-9.0331 7.8154-10.418 3.9927-0.97176 7.7938-2.7309 12.64-4.4861-4.8606-1.788-8.9491-2.4536-13.155-2.5239-2.6597-0.04451-4.7183-0.67329-4.2361-3.9822 0.40045-2.7483 0.87384-5.1982 4.7842-4.7471 8.409 0.96989 16.662 3.0893 25.165 3.3734 0.69907 0.023346 1.59 0.61084 2.0204 1.2051 1.3806 1.9064-0.74619 11.12-2.8936 11.739-4.3212 1.2453-8.0491 4.0948-12.962 4.6425z" fill="#085a91"/>
<path d="m101.08 110.95c-9.692-11.016-8.0688-20.88 4.2-27.596 1.9511-1.068 3.9902-1.6188 6.1988-1.5769 6.6288 0.12583 14.462 7.0035 16.586 14.556 1.8264 6.494-1.1287 13.257-7.6124 17.421-5.963 3.8297-12.874 2.9053-19.373-2.8044m13.922-16.409c-0.61132-0.55986-1.1819-1.174-1.8416-1.6695-2.0268-1.5225-4.228-2.1751-6.3518-0.35677-1.8292 1.5661-3.2273 3.5055-1.9051 6.0945 1.9201 3.7597 4.0978 7.4333 8.8379 7.8748 2.3172 0.21583 4.1307-1.1043 4.8256-3.5037 0.38058-1.3142 0.24502-2.6332-0.26103-3.9015-0.6194-1.5524-1.3475-3.0374-3.304-4.5378z" fill="#085a91"/>
<path d="m325.43 191.31c-7.4035-1.8098-11.457-7.4285-11.707-15.629-0.21909-7.184 3.1551-11.943 10.057-14.185 9.6949-3.1493 16.481-1.774 20.581 4.4501 3.635 5.5185 4.3849 11.683 1.5245 17.562-2.7965 5.7479-8.1929 7.95-14.519 7.8211-1.8301-0.037308-3.6616-0.004212-5.9365-0.019333m-0.092438-19.711c-3.386 2.0712-4.0202 5.1063-1.7278 8.0175 2.8597 3.6317 6.9058 2.3418 10.532 1.1833 3.1332-1.001 5.1884-3.0615 4.4255-6.7393-0.51373-2.4764-2.2492-3.568-4.6548-3.7268-2.6757-0.17673-5.321-0.063278-8.5746 1.2653z" fill="#085a91"/>
<path d="m182.18 348.58c-7.2726 1.0531-8.9287-0.003235-8.3382-6.3677 0.67194-7.2416 0.4639-14.562 2.4456-21.737 0.99927-3.618 2.6626-3.8908 5.6584-3.6292 3.406 0.29739 4.7519 1.8589 4.2997 5.2128-0.12361 0.91669 0.15948 1.8883 0.26227 2.8966 2.8101 0.15799 3.341-2.231 4.6569-3.5186 1.5538-1.5205 2.848-3.328 5.3167-3.312 2.1334 0.013794 4.7587-0.67429 6.0736 1.2919 1.6444 2.4588-1.1823 3.7266-2.3802 5.3489-0.9877 1.3376-1.9492 2.7474-3.1718 3.8481-2.9668 2.6708-3.0253 5.6809-1.4733 9.0319 1.8759 4.0502 3.9318 8.0391 4.6454 12.919-3.7626 0.91968-7.5685 1.0686-10.056-1.841-2.1539-2.5193-3.1543-6.0249-4.8717-9.5155-3.2531 2.8223-0.85202 6.616-3.0672 9.3713z" fill="#085a91"/>
<path d="m290.26 319.95c-1.7402 2.5707-3.8454 4.2048-6.1561 5.5518-5.7611 3.3582-11.32 2.8167-15.758-2.0884-4.8896-5.4041-8.472-11.767-12.299-17.768 6.0506-6.6861 7.2491-6.6274 11.92 0.14731 2.3588 3.4211 4.7031 6.8532 7.1228 10.231 1.5051 2.101 3.5954 2.5346 5.6671 1.0805 2.1606-1.5165 2.0636-3.6737 0.7005-5.7397-2.9295-4.4398-5.7534-8.9644-8.9402-13.215-2.627-3.5037 0.29422-4.6163 2.2075-6.2284 2.0497-1.7271 4.1155-2.2956 5.9009 0.39575 3.3927 5.1142 7.0377 10.085 10.072 15.405 2.1506 3.77 2.2692 7.9795-0.43704 12.228z" fill="#085a91"/>
<path d="m56.807 155.08c2.5097-6.1853 3.567-6.714 7.2413-4.1892 2.1428 1.4724 2.8831 2.8897 1.1839 5.296-2.1159 2.9966-3.1431 6.514-0.94974 9.7724 2.4973 3.71 6.5065 4.1708 10.705 3.733 2.3838-0.24858 3.4129-1.8046 4.2099-3.7182 0.48948-1.1753 0.55499-2.2906-0.74332-3.0224-1.4285-0.80521-2.2844 0.04924-2.7076 1.2204-1.1959 3.3099-3.5164 2.4012-5.6951 1.5297-2.6971-1.0789-1.7952-3.1842-1.0891-5.0493 1.1581-3.0589 0.44878-6.6764 2.9478-9.5965 4.7231 1.1425 9.5167 2.3055 14.312 3.4602 1.4837 0.35724 2.4052 1.3029 2.3476 2.8031-0.21017 5.4726-0.25732 11.074-3.1546 15.93-3.6463 6.1111-13.599 8.2421-21.411 4.9072-7.1365-3.0463-10.916-10.828-8.9221-18.519 0.37274-1.4379 1.0393-2.7997 1.725-4.5573z" fill="#085a91"/>
<path d="m290.64 80.366c1.6274 1.5194 3.8029 2.1702 2.8101 4.9326-3.139 8.7336-6.0936 17.533-9.1547 26.295-0.37412 1.0709-0.758 2.2192-2.5039 2.9131-2.3024-2.7651-8.8527-2.4894-5.7468-9.4849 1.2364-2.7848-5.5946-7.0412-8.483-5.1661-4.5627 2.962-6.6625-0.84236-9.2187-2.9902-1.5358-1.2905-0.27567-2.6365 1.0809-3.5929 7.4498-5.2525 14.87-10.547 22.326-15.79 3.9615-2.7861 5.8803 1.328 8.8898 2.8839m-10.456 13.879c1.7112-1.3365 1.6684-3.1805 1.9621-5.5813-2.3303 1.4501-4.3564 2.163-5.4553 4.5233 1.1419 0.4707 2.0238 0.83423 3.4932 1.058z" fill="#085a91"/>
<path d="m77.365 203.43c0.28354 0.82812 0.45138 1.5707 0.76581 1.6391 6.71 1.4591 5.2527 6.3366 4.8368 10.729-1.4081 1.2605-2.7451 0.69203-3.9481 0.3336-8.2432-2.4559-16.436-5.0836-24.703-7.4544-5.5658-1.5961-3.947-6.0477-4.2975-9.7984-0.33486-3.5833 2.1343-4.2519 4.7961-5.1473 6.4248-2.1614 12.75-4.6181 19.152-6.8508 2.4737-0.86269 5.0465-1.4413 7.4964-2.1275 2.8867 5.4938 2.3399 7.5838-2.5277 10.937-2.7946 1.9252-1.3187 4.839-1.57 7.7398m-10.951-0.86188c1.5445-0.1127 3.0522-1.1485 1.7609-2.3301-2.1643-1.9806-4.6239-0.94701-7.325 1.0726 2.0741 0.53217 3.4715 0.89069 5.5641 1.2575z" fill="#085a91"/>
<path d="m225.82 339.71c1.9598-0.3172 3.6046-0.56589 5.201-0.9946 4.5922-1.2331 4.8853 2.6069 5.5319 5.1591 0.78555 3.101-1.9609 3.0991-4.1457 3.4754-5.0611 0.8717-10.058 2.211-15.145 2.8132-6.1879 0.73248-8.0798-2.4179-5.4278-8.1244 2.4326-5.2343 5.7505-10.077 7.4052-15.824-2.5807-1.0133-4.8474-0.056489-7.0635 0.18796-3.6233 0.39963-4.7308-1.6868-5.2301-4.5847-0.5354-3.1076 1.6484-3.5026 3.9182-3.8772 5.2479-0.86612 10.474-1.8733 15.73-2.679 4.5403-0.69592 7.0222 2.2951 5.2383 6.5701-2.0443 4.8992-4.5513 9.6039-6.79 14.424-0.53712 1.1565-2.2462 2.629 0.77728 3.454z" fill="#085a91"/>
<path d="m330.85 265.2c-4.4084-2.2362-6.7436-4.7737-2.2422-9.0059 1.1117-1.0452 1.8718-2.8384 0.075958-4.6445-2.7148 0.89337-4.3597 3.3148-6.4739 5.0254-3.1821 2.5746-6.6219 3.2579-10.246 1.547-3.5033-1.6541-5.8126-4.5472-6.0598-8.5377-0.3515-5.6751 2.0565-10.601 5.8535-14.399 2.9214-2.9226 5.6743 0.030411 8.2835 1.8878-1.0813 4.1141-6.5083 6.2232-4.9445 11.507 2.8156-0.20506 4.2285-2.2904 5.9361-3.6738 4.3136-3.4945 10.168-4.4424 13.713-1.923 4.2073 2.9898 5.2752 8.2522 2.5492 13.915-1.4948 3.1053-2.7384 6.5052-6.4453 8.3023z" fill="#085a91"/>
<path d="m152.57 333.71c1.5152 0.34524 2.6656 0.54062 3.8003 0.80371 1.7658 0.40942 4.7032-0.44223 4.3443 2.6597-0.31636 2.734-1.1346 5.6709-4.9487 5.8609-9.7412 0.4855-20.709-9.7657-15.69-20.601 4.7785-10.316 7.7673-13.061 17.061-12.753 4.1253 0.13663 7.2046 2.3568 10.35 4.4917 2.5533 1.7328 1.3672 3.5226-0.044938 5.4647-1.4561 2.0026-2.715 3.3826-5.1692 1.3511-3.255-2.6942-6.7233-4.0591-10.051-0.21878-3.4821 4.0183-3.3906 9.2859 0.34834 12.941z" fill="#085a91"/>
<path d="m304.66 148c-3.1607-8.7377 4.0171-18.051 15.685-19.291 9.3077-0.98924 17.299 5.9425 17.903 15.319 0.1904 2.9549-1.5612 3.7502-3.9001 4.0478-2.3398 0.29773-4.4271 0.083588-4.5817-3.0113-0.20194-4.0406-1.9698-6.6669-6.3352-6.754-4.7715-0.095184-8.2256 2.1882-10.616 6.1974-0.81287 1.3634-0.053497 2.6397 0.60199 3.7439 1.3366 2.2517 2.8544 4.396 4.2882 6.5702-4.9848 4.9823-7.1527 4.8407-10.687-0.91225-1.026-1.6701-1.5238-3.6647-2.3583-5.9093z" fill="#085a91"/>
<path d="m238.59 83.796c3.2435-7.5064 6.462-14.601 9.4442-21.794 1.4575-3.5155 3.3672-3.8479 6.543-2.1229 3.1897 1.7326 6.647 2.9738 9.9924 4.4179 2.4477 1.0566 3.0311 2.7293 2.0666 5.2284-0.97641 2.5298-2.4287 3.4502-4.9689 2.1655-0.29126-0.1473-0.63254-0.26639-0.95325-0.27318-1.963-0.041565-4.4904-2.6528-5.7487 0.19408-1.3645 3.087 2.4515 2.7059 3.8107 4.0198 0.80792 0.78096 2.143 0.95715 2.6699 2.3728-0.74759 4.4885-2.7779 6.736-7.7721 4.4875-4.5898-2.0664-4.6373 2.2816-5.8869 4.5933-1.0825 2.0026-1.3458 4.9111-4.6947 3.5678-2.8196-1.131-6.5447-1.8692-4.5021-6.8567z" fill="#085a91"/>
<path d="m127.9 304.86c-2.6561 3.8344-5.0988 7.3779-7.4788 10.83 1.1653 2.6524 3.5397 3.4107 5.3388 4.7827 2.4129 1.8401 2.8813 3.683 1.1231 6.367-1.81 2.7631-3.6297 2.3228-5.793 0.73291-4.6522-3.4191-9.3074-6.8342-14.269-10.477 5.675-7.8941 11.135-15.385 16.473-22.962 2.4712-3.5078 4.7713-1.5088 7.2159-0.10596 2.6224 1.5048 2.9662 3.274 1.0097 5.6443-1.2615 1.5282-2.2795 3.2573-3.62 5.1872z" fill="#085a91"/>
<path d="m155.26 84.015c3.1123 3.8819 2.7288 6.1974-1.9969 7.8966-3.8715 1.392-7.459 3.5943-11.128 5.5224-2.1077 1.1077-3.6171 1.109-4.8373-1.3404-3.6926-7.4128-7.6167-14.711-11.29-22.133-2.186-4.4172 1.3456-5.9373 4.3302-7.3464 3.4231-1.6161 3.6971 1.5953 4.6926 3.4932 2.1519 4.1028 4.3372 8.1928 6.3266 12.375 1.9424 4.083 4.6755 4.0401 8.1392 2.0873 1.7004-0.95869 3.3459-3.274 5.763-0.5547z" fill="#085a91"/>
<path d="m303.12 115.12c-2.1821 1.7872-4.0812 3.3662-6.1937 5.1226 1.0586 1.5912 1.94 3.1529 3.0453 4.5355 4.1007 5.1292 4.1284 5.107-2.0407 9.3999-4.6873-4.0544-8.1207-9.3169-11.953-14.203-1.6799-2.1419-0.048431-3.7414 1.5363-5.0368 6.4153-5.2438 12.918-10.381 19.301-15.664 3.9567-3.2749 4.5685 1.2653 6.421 2.6741 2.1298 1.6197 2.318 3.3836-0.12802 5.1985-3.325 2.467-6.4782 5.1655-9.9882 7.9729z" fill="#085a91"/>
<path d="m259.09 334.07c2.4445 4.9476-1.05 6.1716-4.1084 7.5549-3.6602 1.6556-4.1414-1.4188-5.0922-3.6151-2.1762-5.027-4.2388-10.104-6.444-15.118-1.8766-5.2451-4.4964-7.2403-4.1725-10.704 0.24279-2.0887 2.2894-3.2162 4.1874-3.8996 2.858-1.029 5.5128 0.21329 6.0138 2.8308 1.58 8.2542 6.8524 14.852 9.6158 22.951z" fill="#085a91"/>
<path d="m298.39 287.36c-0.81186-4.8707 1.7515-7.4994 5.6345-8.0215 3.1158-0.41892 5.6913 1.9496 6.435 5.0831 0.79965 3.3695-1.1452 5.7905-4.2264 6.8811-3.5392 1.2525-5.9801-0.57437-7.8431-3.9427z" fill="#085a91"/>
<path d="m103.85 284.4c0.14012 3.7707-1.3658 6.0783-4.654 7.1321-2.379 0.76239-4.2662-0.1756-5.7966-1.8753-2.4833-2.7581-2.6946-5.4146 0.19457-8.2317 2.7972-2.7273 5.4301-3.0221 8.2029-0.24054 0.79945 0.802 1.315 1.887 2.0532 3.2154z" fill="#085a91"/>
<path d="m247.07 143.12c-0.18954-1.8539-2.0067-3.9206 0.22846-5.4856 1.8574-1.3005 3.5792 0.28052 5.0347 1.1563 6.1939 3.7269 13.111 6.7 15.447 14.641 0.34885 1.1855 2.0901 2.0646 3.3282 2.8681 7.6091 4.9385 11.83 11.956 12.823 20.903 1.399 12.608 0.2532 24.621-8.6378 34.678-0.40735 0.46075-0.9574 0.79538-1.9114 1.5715-1.2683-3.6087-0.41827-6.9106-0.56021-10.089-0.20828-4.6645-1.7744-7.8421-6.235-10.324-10.031-5.5812-19.778-11.551-31.462-13.13-8.6295-1.1665-17.253-0.74271-25.884-0.22847-1.1273 0.067139-2.2487 0.73192-3.8338-0.45692 3.0262-2.9281 6.8149-3.8708 10.523-4.548 8.5812-1.5674 17.295-1.3771 25.86-0.18942 9.7259 1.3487 17.292-1.2206 22.647-9.6862 1.7146-2.7104 2.4347-4.8031-0.79468-7.1162-4.4312-3.174-8.5295-6.8127-13.302-10.61-1.4441-1.5566-2.3568-2.7551-3.2695-3.9536z" fill="#085a91"/>
<path d="m131.77 160.72c8.4273-8.2906 17.615-14.59 28.91-17.563 9.46-2.4898 18.275-0.74057 27.029 2.7912-0.39745 1.2598-1.0793 1.2853-1.7215 1.324-0.63058 0.037949-1.2652 0.008285-2.0991 0.008285 3.0537 3.1376 11.802 2.5323 15.739-0.99774-1.4904-1.906-4.2457-0.30464-5.7553-1.9765 3.806-3.6044 13.883-4.9949 19.959-1.8481 5.6603 2.9316 11.668 4.7811 17.492 7.1823 4.9447 2.0388 5.3212 5.6512 0.65352 9.3655-0.46301-3.9883-2.5391-5.5901-6.7851-4.2389 3.7894 5.4435 0.42304 6.8028-4.0854 9.0966-8.7121 4.4326-15.869 2.4424-22.286-3.6498-7.6393-7.253-16.959-8.985-26.841-11.373-15.511-3.7487-24.948 6.0493-36.222 12.294-2.1061 1.1666-3.9663 2.7772-6.2902 4.4323-0.51968-2.5664 0.97015-3.4849 2.3035-4.8467m74.239-6.1693v-4.7172c-2.1524 2.4504-3.6293 4.4283-1.7958 6.7738 2.0833 2.665 5.0753 3.717 8.4548 3.2944 2.8388-0.35501 3.8655-1.5669 4.5326-4.9851-4.1283 5.5551-7.6838 5.662-11.192-0.36584z" fill="#085a91"/>
<path d="m255.54 228.58c-5.5334-3.8975-9.6794-8.7054-13.517-13.71-6.6452-8.6663-15.535-14.331-24.77-19.701-4.779-2.7785-9.3012-6.032-10.527-12.315 3.5612 2.4854 7.1768 4.8971 10.671 7.473 5.6466 4.1622 12.175 6.7902 18.053 10.542 4.449 2.8392 8.0866-1.3339 12.334-0.78036-0.56131-4.2305-6.7502-4.6673-5.0885-8.9307 1.1005-2.8236 4.4062-3.0306 7.2981-3.137 1.138 2.3366-1.6345 3.3538-1.4268 5.0457 0.42776 3.4851 1.8164 6.0867 5.8771 6.8345 5.1243 0.94362 10.667 0.8763 14.615 5.3845 1.9135 2.1847 3.0664 4.2559 1.695 7.7308-7.4782-1.5496-15.231-1.776-22.539-4.9416 5.3819 4.9889 10.573 9.9393 13.492 18.093 0.40512-5.4211-2.9669-8.4128-3.4994-12.478 5.1415 2.3077 9.399 10.819 7.8434 15.251-0.82489 2.3502-2.3423 3.4636-5.013 2.6983-1.9833-0.5684-3.64-1.5851-5.4986-3.0573z" fill="#085a91"/>
<path d="m237.88 131.55c-0.90839 1.7956-0.91814 1.8238-1.9856 1.4547-19.125-6.6128-37.535-3.7223-55.591 4.1278-2.9879 1.299-6.0565 2.4127-9.5156 3.7813 6.5353-14.95 45.513-20.203 67.092-9.3638z" fill="#085a91"/>
<path d="m190.24 201.24c2.7066-2.8079 6.0743-2.7041 9.351-2.5258 14.274 0.77702 25.648 8.5716 37.327 15.792-16.057-2.5882-29.714-13.794-46.678-13.266z" fill="#085a91"/>
<path d="m177.12 233.11c-0.83228-2.2699 0.29916-4.4688 3.2394-6.508 4.3116-2.9903 9.0636-4.7207 14.3-5.4309 9.3536-1.2685 18.696-1.7447 28.383-1.2068-1.0672 3.0428-3.2126 2.1541-4.8417 2.3417-9.0638 1.0437-18.207 1.2072-27.094 3.8919-5.0512 1.526-9.5621 3.7015-13.987 6.9121z" fill="#085a91"/>
<path d="m253.68 266.12c-3.2628-13.529-7.371-26.382-11.824-39.135 12.216 13.401 13.15 30.334 15.476 47.905-3.2951-2.7191-2.6983-5.8375-3.6522-8.7706z" fill="#085a91"/>
<path d="m130.05 176.98c-0.96204-0.40772-1.8861-0.89743-1.3974-2.175 3.6254-9.4778 17.737-20.981 31.994-18.245-11.086 6.1809-22.729 10.147-30.549 20.145-0.086151 0.30546-0.04747 0.27508-0.04747 0.27508z" fill="#085a91"/>
<path d="m130 177.03c4.9262-3.5953 9.5588-7.8 16.206-8.3923-10.97 8.4351-20 18.749-29.557 28.623 2.0809-8.1313 7.0772-14.242 13.202-20.011 0.20303-0.26898 0.16435-0.2386 0.14877-0.21959z" fill="#085a91"/>
<path d="m167.47 174.99c14.371-2.0303 29.25 0.82204 34.398 7.1942-14.204-3.6972-27.723-4.9847-42.638-2.3355 2.7291-3.171 5.4969-3.6178 8.2401-4.8587z" fill="#085a91"/>
<path d="m174.35 156.94c-1.2191-0.8282-2.502-0.99722-3.425-3.2269 14.73 1.396 23.51 14.772 37.257 16.532-7.9961 2.8974-14.313-0.9612-20.457-5.029-4.2826-2.8354-8.3168-6.0445-13.375-8.2764z" fill="#085a91"/>
<path d="m169.69 186.75c-6.454 1.6499-11.562 5.4942-17.646 7.6994 2.584-9.0004 17.142-14.564 32.421-12.052-5.5393 1.6308-9.9669 2.9344-14.775 4.3525z" fill="#085a91"/>
<path d="m243.39 222.38c-6.0912 1.4029-11.808 3.1091-17.277 5.4606-4.1808 1.7975-6.9968 5.2511-9.4122 9.2732-0.49884-4.4529 0.77571-8.2726 4.1482-10.974 3.3878-2.7137 7.284-4.5357 11.875-4.4899 2.3015 0.022995 4.6039-0.61446 6.914-0.68446 1.366-0.041382 3.3119-1.4147 3.7527 1.4147z" fill="#085a91"/>
<path d="m150.97 205.85c5.9348-8.1875 13.208-13.559 23.372-14.279-8.206 5.9183-17.005 11.01-23.663 18.919-1.7306-1.9358-0.67296-3.1466 0.29063-4.6401z" fill="#085a91"/>
<path d="m246.72 142.99c1.2643 1.328 2.1771 2.5265 3.3365 3.9526 0.53246 1.4691 1.5231 2.6241 0.28897 4.7229-7.769-7.3377-17.618-10.538-27.321-14.194 8.4579-0.93979 15.969 1.9291 23.695 5.5188z" fill="#085a91"/>
<path d="m255.9 161.54c6.1209 1.5952 2.1243 4.3954 1.3918 6.9854-4.8411-2.6179-6.8462 2.0288-10.124 3.0441-1.33-5.1931 0.87941-10.053 5.8368-12.285 1.2282 1.089-0.062378 2.1124-0.092895 3.3847 0.94354-0.37909 1.8109-0.72758 2.9886-1.129z" fill="#085a91"/>
<path d="m154.79 217.8c-3.2579 1.6634-4.1542 6.039-8.8677 6.3683 4.6331-8.4661 10.971-14.094 19.564-18.775-0.56895 3.7161-2.7864 5.0652-4.6777 6.7055-1.9977 1.7326-3.8607 3.6204-6.0181 5.7017z" fill="#085a91"/>
<path d="m236.49 187.29c4.2981-1.2062 8.2043-2.3622 13.726-2.1645-7.9778 4.9625-15.226 7.1316-23.278 6.2978 2.3922-3.1085 6.3582-2.0926 9.5518-4.1333z" fill="#085a91"/>
<path d="m139.35 239.78c-0.082046 1.3563 0.1405 2.4021-0.77216 3.1293-3.9625-5.325-2.4637-16.619 3.4764-20.578 0.23909 6.2408-2.6055 11.491-2.7043 17.449z" fill="#085a91"/>
<path d="m233.73 183.87c1.8118-0.049423 3.3121-0.81299 4.6621 0.30952-3.7089 3.6788-12.853 5.2411-20.376 2.9256 5.8199-1.2051 10.574-2.1897 15.714-3.2351z" fill="#085a91"/>
<path d="m239.68 153.6c-2.5379-3.1884-4.3324-6.9039-8.8552-8.0312 3.9438-2.1495 6.9483-0.58279 9.5838 2.0128 2.0135 1.983 2.0199 4.0852-0.72859 6.0184z" fill="#085a91"/>
</svg>
