<?xml version="1.0" encoding="UTF-8"?>
<svg width="40mm" height="100mm" version="1.1" viewBox="0 0 40 100" xmlns="http://www.w3.org/2000/svg">
<g stroke-width=".265">
<rect x="-7.1653" y="-3.2244" width="51.948" height="105.51" rx="1.1369e-13" ry="1.1369e-13" fill="#085a91"/>
<path d="m-5.3739 102.64 64.666-80.072 4.1124 3.3286-65.213 80.568-4.0248-3.2577z" fill="#075183"/>
<path d="m-14.276 96.699 64.666-80.072 4.1124 3.3286-65.213 80.568-4.0248-3.2577z" fill="#075183"/>
<path d="m-21.8 89.534 64.666-80.072 4.1124 3.3286-65.213 80.568-4.0248-3.2577z" fill="#075183"/>
<path d="m19.373 122.06 64.666-80.072 4.1124 3.3286-65.213 80.568-4.0248-3.2577z" fill="#075183"/>
<path d="m10.471 116.12 64.666-80.072 4.1124 3.3286-65.213 80.568-4.0248-3.2577z" fill="#075183"/>
<path d="m2.9474 108.95 64.666-80.072 4.1124 3.3286-65.213 80.568-4.0248-3.2577z" fill="#075183"/>
<path d="m-25.051 77.1 64.666-80.072 4.1124 3.3286-65.213 80.568-4.0248-3.2577z" fill="#075183"/>
<path d="m-33.954 71.157 64.666-80.072 4.1124 3.3286-65.213 80.568-4.0248-3.2577z" fill="#075183"/>
<path d="m-41.477 63.992 64.666-80.072 4.1124 3.3286-65.213 80.568-4.0248-3.2577z" fill="#075183"/>
<path d="m-38.486 60.441 64.666-80.072 4.1124 3.3286-65.213 80.568-4.0248-3.2577z" fill="#075183"/>
<path d="m-47.389 54.498 64.666-80.072 4.1124 3.3286-65.213 80.568-4.0248-3.2577z" fill="#075183"/>
<path d="m-54.912 47.333 64.666-80.072 4.1124 3.3286-65.213 80.568-4.0248-3.2577z" fill="#075183"/>
</g>
</svg>
