<?xml version="1.0" encoding="UTF-8"?>
<svg width="1366mm" height="760mm" version="1.1" viewBox="0 0 1366 760" xmlns="http://www.w3.org/2000/svg">
<g stroke-width=".26458">
<rect x="-17.197" y="-17.197" width="1453.1" height="822.57" rx="1.1369e-13" ry="1.1369e-13" fill="#085a91"/>
<path d="m1474.4 694.55c-29.855 137.1-71.414 97.448-117.51 56.605s-96.73-82.878-141.63-91.237-84.072 16.957-133.75 24.361c-49.68 7.404-109.87-3.1048-147.13-43.47s-51.59-110.58-55.411-176.27c-3.8214-65.682 2.866-126.82 47.53-180.8 44.664-53.979 127.3-100.79 197.04-159.55 69.742-58.756 126.59-129.45 193.94-163.84 67.354-34.393 145.22-32.483 175.07 125.4 29.855 157.88 11.703 471.71-18.152 608.81z" fill="#dea01e"/>
</g>
</svg>
