<?xml version="1.0" encoding="UTF-8"?>
<svg width="760mm" height="1366mm" version="1.1" viewBox="0 0 760 1366" xmlns="http://www.w3.org/2000/svg" xmlns:xlink="http://www.w3.org/1999/xlink">
<defs>
<linearGradient id="c" x1="410.37" x2="405.33" y1="326.74" y2="1477.4" gradientTransform="translate(-1.9852 6.7576)" gradientUnits="userSpaceOnUse">
<stop stop-color="#085a91" offset=".02069"/>
<stop stop-color="#1375b0" offset="1"/>
</linearGradient>
</defs>
<rect x="-162.09" y="-88.495" width="1017.4" height="1556.5" rx="1.1369e-13" ry="1.1369e-13" fill="url(#c)" stroke-width=".265"/>
<ellipse id="b" cx="147.85" cy="262.26" rx=".24128" ry=".20239" fill="#f2f2f2" stroke-width=".265"/>
<use transform="matrix(1.2504 0 0 1.2504 -106.54 -294.08)" stroke-width=".79977" xlink:href="#b"/>
<use transform="matrix(.72592 0 0 .72592 473.22 -126.27)" stroke-width="1.3776" xlink:href="#b"/>
<use transform="matrix(.50776 0 0 .50776 482.56 -3.0729)" stroke-width="1.9694" xlink:href="#b"/>
<use transform="matrix(.72751 0 0 .72751 -51.154 -53.858)" stroke-width="1.3746" xlink:href="#b"/>
<use transform="matrix(.605 0 0 .605 20.853 -5.6459)" stroke-width="1.6529" xlink:href="#b"/>
<use transform="matrix(1.4423 0 0 1.4423 -16.737 -276.81)" stroke-width=".69334" xlink:href="#b"/>
<use transform="matrix(1.1939 0 0 1.1939 376.18 -186.77)" stroke-width=".83758" xlink:href="#b"/>
<use transform="matrix(1.087 0 0 1.087 381.19 -190.38)" stroke-width=".91995" xlink:href="#b"/>
<use transform="matrix(1.3305 0 0 1.3305 160.03 -196.94)" stroke-width=".7516" xlink:href="#b"/>
<use transform="matrix(1.1297 0 0 1.1297 -46.062 -157.21)" stroke-width=".88519" xlink:href="#b"/>
<use transform="matrix(.81992 0 0 .81992 -109.24 -65.559)" stroke-width="1.2196" xlink:href="#b"/>
<use transform="matrix(1.4639 0 0 1.4639 334.04 -226.05)" stroke-width=".6831" xlink:href="#b"/>
<use transform="matrix(.55889 0 0 .55889 88.439 12.804)" stroke-width="1.7893" xlink:href="#b"/>
<use transform="matrix(1.3813 0 0 1.3813 -46.086 -24.202)" stroke-width=".72396" xlink:href="#b"/>
<use transform="matrix(.66098 0 0 .66098 102.18 213.41)" stroke-width="1.5129" xlink:href="#b"/>
<use transform="matrix(1.3661 0 0 1.3661 160.29 21.001)" stroke-width=".73202" xlink:href="#b"/>
<use transform="matrix(.99053 0 0 .99053 -28.02 120.32)" stroke-width="1.0096" xlink:href="#b"/>
<use transform="matrix(.58729 0 0 .58729 522.75 306.46)" stroke-width="1.7027" xlink:href="#b"/>
<use transform="matrix(.68484 0 0 .68484 495.48 269.42)" stroke-width="1.4602" xlink:href="#b"/>
<use transform="matrix(.92695 0 0 .92695 342.86 194.05)" stroke-width="1.0788" xlink:href="#b"/>
<use transform="matrix(1.3063 0 0 1.3063 437.42 104.32)" stroke-width=".76551" xlink:href="#b"/>
<use transform="matrix(1.1345 0 0 1.1345 257.41 163.63)" stroke-width=".88142" xlink:href="#b"/>
<use transform="matrix(.66202 0 0 .66202 173.72 332.45)" stroke-width="1.5105" xlink:href="#b"/>
<use transform="matrix(1.0001 0 0 1.0001 264.78 188.12)" stroke-width=".99991" xlink:href="#b"/>
<use transform="matrix(.69528 0 0 .69528 149.28 366.99)" stroke-width="1.4383" xlink:href="#b"/>
<use transform="matrix(.54655 0 0 .54655 335.15 361.97)" stroke-width="1.8297" xlink:href="#b"/>
<use transform="matrix(.94829 0 0 .94829 394.36 300.73)" stroke-width="1.0545" xlink:href="#b"/>
<use transform="matrix(.99203 0 0 .99203 613.17 214.14)" stroke-width="1.008" xlink:href="#b"/>
<use transform="matrix(1.1203 0 0 1.1203 350.22 227.92)" stroke-width=".89258" xlink:href="#b"/>
<use transform="matrix(.6656 0 0 .6656 275.76 407.48)" stroke-width="1.5024" xlink:href="#b"/>
<use transform="matrix(.68545 0 0 .68545 154.01 447.82)" stroke-width="1.4589" xlink:href="#b"/>
<use transform="matrix(1.4364 0 0 1.4364 298.69 216.36)" stroke-width=".69616" xlink:href="#b"/>
<use transform="matrix(.79827 0 0 .79827 405.16 462.17)" stroke-width="1.2527" xlink:href="#b"/>
<use transform="matrix(.65006 0 0 .65006 -96.032 410.17)" stroke-width="1.5383" xlink:href="#b"/>
<use transform="matrix(.73359 0 0 .73359 398.02 431.48)" stroke-width="1.3632" xlink:href="#b"/>
<use transform="matrix(.91389 0 0 .91389 46.373 590.35)" stroke-width="1.0942" xlink:href="#b"/>
<use transform="matrix(1.046 0 0 1.046 345.65 466.02)" stroke-width=".95604" xlink:href="#b"/>
<use transform="matrix(.85021 0 0 .85021 545.46 553.95)" stroke-width="1.1762" xlink:href="#b"/>
<use transform="matrix(.85437 0 0 .85437 305.83 571.95)" stroke-width="1.1705" xlink:href="#b"/>
<use transform="matrix(1.3517 0 0 1.3517 105.32 419.96)" stroke-width=".73979" xlink:href="#b"/>
<use transform="matrix(.88642 0 0 .88642 331.61 606.45)" stroke-width="1.1281" xlink:href="#b"/>
<use transform="matrix(1.4047 0 0 1.4047 381.22 640.41)" stroke-width=".71188" xlink:href="#b"/>
<use transform="matrix(.76727 0 0 .76727 467.06 880.98)" stroke-width="1.3033" xlink:href="#b"/>
<use transform="matrix(1.1769 0 0 1.1769 212.49 800.92)" stroke-width=".84968" xlink:href="#b"/>
<use transform="matrix(1.4376 0 0 1.4376 250.92 750.16)" stroke-width=".69561" xlink:href="#b"/>
<use transform="matrix(.99362 0 0 .99362 275.22 883.15)" stroke-width="1.0064" xlink:href="#b"/>
<use transform="matrix(.89266 0 0 .89266 166.57 961.78)" stroke-width="1.1202" xlink:href="#b"/>
<use transform="matrix(1.3521 0 0 1.3521 204.83 880.5)" stroke-width=".73959" xlink:href="#b"/>
<use transform="matrix(1.305 0 0 1.305 -116.46 874.79)" stroke-width=".7663" xlink:href="#b"/>
<use transform="matrix(.68584 0 0 .68584 29.593 1036.4)" stroke-width="1.4581" xlink:href="#b"/>
<use transform="matrix(1.0433 0 0 1.0433 123.09 994.75)" stroke-width=".95853" xlink:href="#b"/>
<use transform="matrix(1.1171 0 0 1.1171 4.2152 931.31)" stroke-width=".89521" xlink:href="#b"/>
<use transform="matrix(1.4112 0 0 1.4112 -30.905 893.85)" stroke-width=".70863" xlink:href="#b"/>
<use transform="matrix(1.4391 0 0 1.4391 247.82 821.05)" stroke-width=".69486" xlink:href="#b"/>
<use transform="matrix(.8772 0 0 .8772 117.3 788.2)" stroke-width="1.14" xlink:href="#b"/>
<use transform="matrix(.76635 0 0 .76635 404.67 320.2)" stroke-width="1.3049" xlink:href="#b"/>
<use transform="matrix(.89055 0 0 .89055 511.45 313.78)" stroke-width="1.1229" xlink:href="#b"/>
<use transform="matrix(1.0579 0 0 1.0579 162.15 183.63)" stroke-width=".94526" xlink:href="#b"/>
<use transform="matrix(.52847 0 0 .52847 141.39 288.03)" stroke-width="1.8922" xlink:href="#b"/>
<use transform="matrix(1.1431 0 0 1.1431 134.81 102.69)" stroke-width=".87481" xlink:href="#b"/>
<use transform="matrix(.56107 0 0 .56107 302.42 197.74)" stroke-width="1.7823" xlink:href="#b"/>
<use transform="matrix(.70672 0 0 .70672 16.626 46.445)" stroke-width="1.415" xlink:href="#b"/>
<use transform="matrix(1.1442 0 0 1.1442 97.927 -127.44)" stroke-width=".87394" xlink:href="#b"/>
<use transform="matrix(.99636 0 0 .99636 -88.439 -145.89)" stroke-width="1.0037" xlink:href="#b"/>
<use transform="matrix(.95996 0 0 .95996 275.79 -179.04)" stroke-width="1.0417" xlink:href="#b"/>
<use transform="matrix(.66054 0 0 .66054 422.71 -111.93)" stroke-width="1.5139" xlink:href="#b"/>
<use transform="matrix(.59926 0 0 .59926 -29.244 -110.36)" stroke-width="1.6687" xlink:href="#b"/>
<use transform="matrix(.50592 0 0 .50592 184.18 -108.77)" stroke-width="1.9766" xlink:href="#b"/>
<use transform="matrix(1.0405 0 0 1.0405 -15.466 -257.75)" stroke-width=".96107" xlink:href="#b"/>
<use transform="matrix(.66742 0 0 .66742 516.26 -161.01)" stroke-width="1.4983" xlink:href="#b"/>
<use transform="matrix(1.4994 0 0 1.4994 333.34 -372.97)" stroke-width=".66692" xlink:href="#b"/>
<use transform="matrix(1.1694 0 0 1.1694 435.23 -235.08)" stroke-width=".85514" xlink:href="#b"/>
<use transform="matrix(.91407 0 0 .91407 144.12 -23.824)" stroke-width="1.094" xlink:href="#b"/>
<use transform="matrix(.61826 0 0 .61826 205.94 58.707)" stroke-width="1.6174" xlink:href="#b"/>
<use transform="matrix(.81355 0 0 .81355 44.253 129.13)" stroke-width="1.2292" xlink:href="#b"/>
<use transform="matrix(.53391 0 0 .53391 11.071 187.11)" stroke-width="1.873" xlink:href="#b"/>
<use transform="matrix(1.1217 0 0 1.1217 310.76 25.513)" stroke-width=".89149" xlink:href="#b"/>
<use transform="matrix(1.2452 0 0 1.2452 147.12 141.75)" stroke-width=".80309" xlink:href="#b"/>
<use transform="matrix(1.0162 0 0 1.0162 2.4719 355.11)" stroke-width=".9841" xlink:href="#b"/>
<use transform="matrix(.56843 0 0 .56843 189.53 572.54)" stroke-width="1.7592" xlink:href="#b"/>
<use transform="matrix(.60582 0 0 .60582 56.185 621.03)" stroke-width="1.6506" xlink:href="#b"/>
<use transform="matrix(.91582 0 0 .91582 -52.848 546.36)" stroke-width="1.0919" xlink:href="#b"/>
<use transform="matrix(1.4159 0 0 1.4159 -1.5563 581.15)" stroke-width=".70627" xlink:href="#b"/>
<use transform="matrix(.52511 0 0 .52511 104.12 847.59)" stroke-width="1.9044" xlink:href="#b"/>
<use transform="matrix(1.4421 0 0 1.4421 375.2 748.78)" stroke-width=".69344" xlink:href="#b"/>
<use transform="matrix(.99733 0 0 .99733 278.05 968.59)" stroke-width="1.0027" xlink:href="#b"/>
<use transform="matrix(1.1292 0 0 1.1292 -32.537 1067.8)" stroke-width=".88558" xlink:href="#b"/>
<use transform="matrix(1.1573 0 0 1.1573 403.98 -228.68)" stroke-width=".86406" xlink:href="#b"/>
<use transform="matrix(1.4048 0 0 1.4048 379.25 -305.03)" stroke-width=".71184" xlink:href="#b"/>
<use transform="matrix(.8582 0 0 .8582 200.23 -104.64)" stroke-width="1.1652" xlink:href="#b"/>
<use transform="matrix(1.3027 0 0 1.3027 303.19 -179.59)" stroke-width=".76765" xlink:href="#b"/>
<use transform="matrix(.7683 0 0 .7683 241.18 -18.584)" stroke-width="1.3016" xlink:href="#b"/>
<use transform="matrix(.67071 0 0 .67071 336.58 19.492)" stroke-width="1.491" xlink:href="#b"/>
<use transform="matrix(1.2878 0 0 1.2878 273.85 -132.79)" stroke-width=".77651" xlink:href="#b"/>
<use transform="matrix(.7059 0 0 .7059 189.02 73.173)" stroke-width="1.4166" xlink:href="#b"/>
<use transform="matrix(.82816 0 0 .82816 235.67 69.421)" stroke-width="1.2075" xlink:href="#b"/>
<use transform="matrix(1.4335 0 0 1.4335 150.53 -54.742)" stroke-width=".69759" xlink:href="#b"/>
<use transform="matrix(1.3764 0 0 1.3764 176.85 3.9634)" stroke-width=".72652" xlink:href="#b"/>
<use transform="matrix(1.0629 0 0 1.0629 266.89 82.965)" stroke-width=".94078" xlink:href="#b"/>
<use transform="matrix(1.3284 0 0 1.3284 245.09 46.056)" stroke-width=".7528" xlink:href="#b"/>
<use transform="matrix(1.137 0 0 1.137 228.47 86.747)" stroke-width=".87952" xlink:href="#b"/>
<use transform="matrix(1.0773 0 0 1.0773 398.41 179.04)" stroke-width=".92823" xlink:href="#b"/>
<use transform="matrix(1.433 0 0 1.433 29.55 52.903)" stroke-width=".69786" xlink:href="#b"/>
<use transform="matrix(1.2671 0 0 1.2671 -138.46 -269.14)" stroke-width=".78918" xlink:href="#b"/>
<use transform="matrix(.69438 0 0 .69438 37.975 -98.3)" stroke-width="1.4401" xlink:href="#b"/>
<use transform="matrix(1.1264 0 0 1.1264 187.15 -160.9)" stroke-width=".88775" xlink:href="#b"/>
<use transform="matrix(.93294 0 0 .93294 -113.07 -158.19)" stroke-width="1.0719" xlink:href="#b"/>
<use transform="matrix(.81128 0 0 .81128 507.62 -76.042)" stroke-width="1.2326" xlink:href="#b"/>
<use transform="matrix(1.4555 0 0 1.4555 407.34 -256.33)" stroke-width=".68705" xlink:href="#b"/>
<use transform="matrix(.89216 0 0 .89216 225.6 -117.84)" stroke-width="1.1209" xlink:href="#b"/>
<use transform="matrix(1.2303 0 0 1.2303 298.93 -265.23)" stroke-width=".81283" xlink:href="#b"/>
<use transform="matrix(.77547 0 0 .77547 252.48 -73.895)" stroke-width="1.2895" xlink:href="#b"/>
<use transform="matrix(1.3054 0 0 1.3054 218.82 -274)" stroke-width=".76602" xlink:href="#b"/>
<use transform="matrix(.86955 0 0 .86955 465.26 -112.29)" stroke-width="1.15" xlink:href="#b"/>
<use transform="matrix(1.4326 0 0 1.4326 214.66 -281.25)" stroke-width=".69803" xlink:href="#b"/>
<use transform="matrix(1.2129 0 0 1.2129 152.51 -191.49)" stroke-width=".82446" xlink:href="#b"/>
<use transform="matrix(1.3042 0 0 1.3042 -85.915 -176.1)" stroke-width=".76675" xlink:href="#b"/>
<use transform="matrix(1.2461 0 0 1.2461 541.4 -135.4)" stroke-width=".80251" xlink:href="#b"/>
<use transform="matrix(.89081 0 0 .89081 486.8 -61.18)" stroke-width="1.1226" xlink:href="#b"/>
<use transform="matrix(1.1201 0 0 1.1201 218.96 -100.7)" stroke-width=".89281" xlink:href="#b"/>
<use transform="matrix(1.4849 0 0 1.4849 414.66 -206.85)" stroke-width=".67342" xlink:href="#b"/>
<use transform="matrix(.88949 0 0 .88949 96.277 -26.84)" stroke-width="1.1242" xlink:href="#b"/>
<use transform="matrix(.57799 0 0 .57799 191.27 33.028)" stroke-width="1.7301" xlink:href="#b"/>
<use transform="matrix(1.1749 0 0 1.1749 483.55 -106.16)" stroke-width=".8511" xlink:href="#b"/>
<use transform="matrix(1.0168 0 0 1.0168 432.12 -32.317)" stroke-width=".98346" xlink:href="#b"/>
<use transform="matrix(.66848 0 0 .66848 604.87 44.885)" stroke-width="1.4959" xlink:href="#b"/>
<use transform="matrix(.77284 0 0 .77284 24.073 36.663)" stroke-width="1.2939" xlink:href="#b"/>
<use transform="matrix(.54834 0 0 .54834 75.594 73.759)" stroke-width="1.8237" xlink:href="#b"/>
<use transform="matrix(1.1629 0 0 1.1629 531.79 -78.587)" stroke-width=".85989" xlink:href="#b"/>
<use transform="matrix(1.3897 0 0 1.3897 -5.214 -146.73)" stroke-width=".71958" xlink:href="#b"/>
<use transform="matrix(.85619 0 0 .85619 -14.668 -4.0543)" stroke-width="1.168" xlink:href="#b"/>
<use transform="matrix(1.1443 0 0 1.1443 374.85 30.044)" stroke-width=".87389" xlink:href="#b"/>
<use transform="matrix(1.2252 0 0 1.2252 -21.887 35.435)" stroke-width=".81619" xlink:href="#b"/>
<use transform="matrix(.82885 0 0 .82885 455.36 156.17)" stroke-width="1.2065" xlink:href="#b"/>
<use transform="matrix(.88106 0 0 .88106 -86.506 83.129)" stroke-width="1.135" xlink:href="#b"/>
<use transform="matrix(1.2158 0 0 1.2158 454.95 37.218)" stroke-width=".82252" xlink:href="#b"/>
<use transform="matrix(.9692 0 0 .9692 38.451 138.21)" stroke-width="1.0318" xlink:href="#b"/>
<use transform="matrix(.80461 0 0 .80461 205.88 170.03)" stroke-width="1.2428" xlink:href="#b"/>
<use transform="matrix(.73373 0 0 .73373 81.237 273.18)" stroke-width="1.3629" xlink:href="#b"/>
<use transform="matrix(1.2208 0 0 1.2208 385.07 209.46)" stroke-width=".81912" xlink:href="#b"/>
<use transform="matrix(1.0326 0 0 1.0326 364.79 237.34)" stroke-width=".96842" xlink:href="#b"/>
<use transform="matrix(1.472 0 0 1.472 134.57 124.54)" stroke-width=".67934" xlink:href="#b"/>
<use transform="matrix(.74976 0 0 .74976 1.7945 359.89)" stroke-width="1.3338" xlink:href="#b"/>
<use transform="matrix(.838 0 0 .838 494.57 382.62)" stroke-width="1.1933" xlink:href="#b"/>
<use transform="matrix(.80826 0 0 .80826 529.74 369.02)" stroke-width="1.2372" xlink:href="#b"/>
<use transform="matrix(.83 0 0 .83 -94.422 295.86)" stroke-width="1.2048" xlink:href="#b"/>
<use transform="matrix(1.4122 0 0 1.4122 509.15 275.89)" stroke-width=".7081" xlink:href="#b"/>
<use transform="matrix(1.1453 0 0 1.1453 494.25 359.28)" stroke-width=".87313" xlink:href="#b"/>
<use transform="matrix(1.3092 0 0 1.3092 -68.195 279.86)" stroke-width=".76382" xlink:href="#b"/>
<use transform="matrix(.57394 0 0 .57394 507.88 576.41)" stroke-width="1.7423" xlink:href="#b"/>
<use transform="matrix(1.3537 0 0 1.3537 91.411 399.69)" stroke-width=".73871" xlink:href="#b"/>
<use transform="matrix(.79256 0 0 .79256 -7.0012 636.89)" stroke-width="1.2617" xlink:href="#b"/>
<use transform="matrix(.57539 0 0 .57539 385.25 777.18)" stroke-width="1.738" xlink:href="#b"/>
<use transform="matrix(.61024 0 0 .61024 177.12 798.79)" stroke-width="1.6387" xlink:href="#b"/>
<use transform="matrix(1.017 0 0 1.017 -26.575 697.43)" stroke-width=".98325" xlink:href="#b"/>
<use transform="matrix(.96823 0 0 .96823 274.66 743.53)" stroke-width="1.0328" xlink:href="#b"/>
<use transform="matrix(.58761 0 0 .58761 -34.445 868.27)" stroke-width="1.7018" xlink:href="#b"/>
<use transform="matrix(.69284 0 0 .69284 499.65 897.1)" stroke-width="1.4433" xlink:href="#b"/>
<use transform="matrix(1.3478 0 0 1.3478 38.07 666.51)" stroke-width=".74195" xlink:href="#b"/>
<use transform="matrix(.6994 0 0 .6994 443.22 903.98)" stroke-width="1.4298" xlink:href="#b"/>
<use transform="matrix(.79828 0 0 .79828 380.34 910.32)" stroke-width="1.2527" xlink:href="#b"/>
<use transform="matrix(1.3983 0 0 1.3983 362.48 755.85)" stroke-width=".71516" xlink:href="#b"/>
<use transform="matrix(.52262 0 0 .52262 32.178 961.86)" stroke-width="1.9134" xlink:href="#b"/>
<use transform="matrix(1.4521 0 0 1.4521 229.51 887.68)" stroke-width=".68864" xlink:href="#b"/>
<use transform="matrix(1.4531 0 0 1.4531 -150.17 822.03)" stroke-width=".6882" xlink:href="#b"/>
<use transform="matrix(1.1445 0 0 1.1445 -27.297 936.71)" stroke-width=".87377" xlink:href="#b"/>
<use transform="matrix(.51135 0 0 .51135 110.09 1034.3)" stroke-width="1.9556" xlink:href="#b"/>
<use transform="matrix(.86597 0 0 .86597 312.15 1014.8)" stroke-width="1.1548" xlink:href="#b"/>
<use transform="matrix(.53224 0 0 .53224 349.97 1194.5)" stroke-width="1.8788" xlink:href="#b"/>
<use transform="matrix(.5967 0 0 .5967 146.43 1106.7)" stroke-width="1.6759" xlink:href="#b"/>
<use transform="matrix(1.365 0 0 1.365 415.08 918.75)" stroke-width=".7326" xlink:href="#b"/>
<use transform="matrix(.7777 0 0 .7777 214.81 1070)" stroke-width="1.2858" xlink:href="#b"/>
<use transform="matrix(.76307 0 0 .76307 271.92 950.4)" stroke-width="1.3105" xlink:href="#b"/>
<use transform="matrix(1.139 0 0 1.139 67.58 772.46)" stroke-width=".87795" xlink:href="#b"/>
<use transform="matrix(.93848 0 0 .93848 300.83 709.11)" stroke-width="1.0656" xlink:href="#b"/>
<use transform="matrix(1.0355 0 0 1.0355 518.26 649.17)" stroke-width=".96568" xlink:href="#b"/>
<use transform="matrix(.6448 0 0 .6448 237.03 685.51)" stroke-width="1.5509" xlink:href="#b"/>
<use transform="matrix(1.4074 0 0 1.4074 -148.89 388.04)" stroke-width=".71054" xlink:href="#b"/>
<use transform="matrix(1.1757 0 0 1.1757 355.78 399.13)" stroke-width=".85056" xlink:href="#b"/>
<use transform="matrix(.79555 0 0 .79555 472.41 521.2)" stroke-width="1.257" xlink:href="#b"/>
<use transform="matrix(.86482 0 0 .86482 48.141 441.88)" stroke-width="1.1563" xlink:href="#b"/>
<use transform="matrix(.58504 0 0 .58504 355.69 455.88)" stroke-width="1.7093" xlink:href="#b"/>
<use transform="matrix(.74131 0 0 .74131 399.82 392.97)" stroke-width="1.349" xlink:href="#b"/>
<use transform="matrix(.54075 0 0 .54075 -21.223 388.78)" stroke-width="1.8493" xlink:href="#b"/>
<use transform="matrix(.6184 0 0 .6184 481.2 238.39)" stroke-width="1.6171" xlink:href="#b"/>
<use transform="matrix(1.2329 0 0 1.2329 -97.889 15.462)" stroke-width=".81108" xlink:href="#b"/>
<use transform="matrix(.7665 0 0 .7665 -70.012 -50.495)" stroke-width="1.3046" xlink:href="#b"/>
<use transform="matrix(1.242 0 0 1.242 -70.443 -216.49)" stroke-width=".80516" xlink:href="#b"/>
<use transform="matrix(.55666 0 0 .55666 425.93 -100.43)" stroke-width="1.7964" xlink:href="#b"/>
<use transform="matrix(1.4918 0 0 1.4918 -202.27 -307.07)" stroke-width=".67034" xlink:href="#b"/>
<use transform="matrix(.97562 0 0 .97562 522.84 -172.45)" stroke-width="1.025" xlink:href="#b"/>
<use transform="matrix(.81074 0 0 .81074 247.97 -39.899)" stroke-width="1.2334" xlink:href="#b"/>
<use transform="matrix(.50848 0 0 .50848 531.25 85.546)" stroke-width="1.9666" xlink:href="#b"/>
<use transform="matrix(.99389 0 0 .99389 -46.327 24.256)" stroke-width="1.0062" xlink:href="#b"/>
<use transform="matrix(.64158 0 0 .64158 600.39 171.5)" stroke-width="1.5587" xlink:href="#b"/>
<use transform="matrix(.81759 0 0 .81759 373.77 249.54)" stroke-width="1.2231" xlink:href="#b"/>
<use transform="matrix(1.1656 0 0 1.1656 372.19 201.52)" stroke-width=".8579" xlink:href="#b"/>
<use transform="matrix(.96064 0 0 .96064 475.93 435.53)" stroke-width="1.041" xlink:href="#b"/>
<use transform="matrix(1.346 0 0 1.346 86.502 383.9)" stroke-width=".74297" xlink:href="#b"/>
<use transform="matrix(1.1589 0 0 1.1589 60.538 516.28)" stroke-width=".8629" xlink:href="#b"/>
<use transform="matrix(1.0771 0 0 1.0771 -91.152 555.35)" stroke-width=".92838" xlink:href="#b"/>
<use transform="matrix(.69292 0 0 .69292 129.77 678.86)" stroke-width="1.4432" xlink:href="#b"/>
<use transform="matrix(1.4067 0 0 1.4067 203.71 794.34)" stroke-width=".71089" xlink:href="#b"/>
<path id="a" d="m175.77 154.07-0.15475 0.69181-0.56436 0.12744 0.55526 0.091 0.16385 0.55527 0.10013-0.54617 0.49155-0.0728-0.50976-0.17295z" fill="#f2f2f2" stroke-width=".265"/>
<use transform="matrix(1.1817 0 0 1.1817 -148.86 -90.276)" stroke-width=".84626" xlink:href="#a"/>
<use transform="matrix(1.1718 0 0 1.1718 230.8 -119.84)" stroke-width=".85336" xlink:href="#a"/>
<use transform="matrix(.83915 0 0 .83915 516.28 -10.298)" stroke-width="1.1917" xlink:href="#a"/>
<use transform="matrix(1.0765 0 0 1.0765 483.01 -69.526)" stroke-width=".92897" xlink:href="#a"/>
<use transform="matrix(.80859 0 0 .80859 494.1 39.951)" stroke-width="1.2367" xlink:href="#a"/>
<use transform="matrix(.87869 0 0 .87869 351.7 70.666)" stroke-width="1.1381" xlink:href="#a"/>
<use transform="matrix(1.0384 0 0 1.0384 131.13 -35.453)" stroke-width=".96304" xlink:href="#a"/>
<use transform="matrix(1.1018 0 0 1.1018 2.0465 -80.063)" stroke-width=".90762" xlink:href="#a"/>
<use transform="matrix(1.1482 0 0 1.1482 -44.991 -88.623)" stroke-width=".87093" xlink:href="#a"/>
<use transform="matrix(1.0709 0 0 1.0709 -32.371 -10.326)" stroke-width=".93384" xlink:href="#a"/>
<use transform="matrix(.85509 0 0 .85509 178.33 29.747)" stroke-width="1.1695" xlink:href="#a"/>
<use transform="matrix(.94779 0 0 .94779 322.31 -57.574)" stroke-width="1.0551" xlink:href="#a"/>
<use transform="matrix(1.1375 0 0 1.1375 387.39 46.35)" stroke-width=".87913" xlink:href="#a"/>
<use transform="matrix(.92325 0 0 .92325 365.42 118.01)" stroke-width="1.0831" xlink:href="#a"/>
<use transform="matrix(1.1239 0 0 1.1239 65.042 .26922)" stroke-width=".88975" xlink:href="#a"/>
<use transform="matrix(1.0492 0 0 1.0492 61.081 33.673)" stroke-width=".9531" xlink:href="#a"/>
<use transform="matrix(1.1023 0 0 1.1023 33.45 103.83)" stroke-width=".90719" xlink:href="#a"/>
<use transform="matrix(.93708 0 0 .93708 408.14 84.943)" stroke-width="1.0671" xlink:href="#a"/>
<use transform="matrix(1.1578 0 0 1.1578 513.99 40.828)" stroke-width=".8637" xlink:href="#a"/>
<use transform="matrix(.93893 0 0 .93893 -63.571 171.14)" stroke-width="1.065" xlink:href="#a"/>
<use transform="matrix(.82465 0 0 .82465 434.6 195.65)" stroke-width="1.2126" xlink:href="#a"/>
<use transform="matrix(1.1244 0 0 1.1244 118.17 194.84)" stroke-width=".88934" xlink:href="#a"/>
<use transform="matrix(1.0259 0 0 1.0259 511.79 204.71)" stroke-width=".97474" xlink:href="#a"/>
<use transform="matrix(1.0564 0 0 1.0564 502.97 214.84)" stroke-width=".94661" xlink:href="#a"/>
<use transform="matrix(1.1669 0 0 1.1669 374.97 230.41)" stroke-width=".85698" xlink:href="#a"/>
<use transform="matrix(1.1815 0 0 1.1815 -7.0441 229.29)" stroke-width=".84636" xlink:href="#a"/>
<use transform="matrix(1.1112 0 0 1.1112 349.17 291.21)" stroke-width=".89992" xlink:href="#a"/>
<use transform="matrix(.86597 0 0 .86597 393.29 416.34)" stroke-width="1.1548" xlink:href="#a"/>
<use transform="matrix(.86964 0 0 .86964 47.548 381.62)" stroke-width="1.1499" xlink:href="#a"/>
<use transform="matrix(.80049 0 0 .80049 293.61 403.12)" stroke-width="1.2492" xlink:href="#a"/>
<use transform="matrix(1.1969 0 0 1.1969 264.71 469.61)" stroke-width=".83553" xlink:href="#a"/>
<use transform="matrix(1.0306 0 0 1.0306 118.23 511.09)" stroke-width=".97029" xlink:href="#a"/>
<use transform="matrix(.85267 0 0 .85267 155.53 574.58)" stroke-width="1.1728" xlink:href="#a"/>
<use transform="matrix(.95202 0 0 .95202 240.86 476.38)" stroke-width="1.0504" xlink:href="#a"/>
<use transform="matrix(1.1817 0 0 1.1817 301.7 514.04)" stroke-width=".84623" xlink:href="#a"/>
<use transform="matrix(1.0825 0 0 1.0825 -98.178 510.16)" stroke-width=".92382" xlink:href="#a"/>
<use transform="matrix(.98704 0 0 .98704 112.26 576.14)" stroke-width="1.0131" xlink:href="#a"/>
<use transform="matrix(.95727 0 0 .95727 209.77 570.31)" stroke-width="1.0446" xlink:href="#a"/>
<use transform="matrix(1.1239 0 0 1.1239 448.76 548.49)" stroke-width=".88974" xlink:href="#a"/>
<use transform="matrix(.80968 0 0 .80968 435.04 640.36)" stroke-width="1.2351" xlink:href="#a"/>
<use transform="matrix(1.1269 0 0 1.1269 -8.8658 623.43)" stroke-width=".88736" xlink:href="#a"/>
<use transform="matrix(1.112 0 0 1.112 401.98 612)" stroke-width=".89925" xlink:href="#a"/>
<use transform="matrix(1.1453 0 0 1.1453 -10.561 688.94)" stroke-width=".87314" xlink:href="#a"/>
<use transform="matrix(.8791 0 0 .8791 541.96 776.4)" stroke-width="1.1375" xlink:href="#a"/>
<use transform="matrix(.86597 0 0 .86597 99.398 792.34)" stroke-width="1.1548" xlink:href="#a"/>
<use transform="matrix(.81981 0 0 .81981 5.739 846.69)" stroke-width="1.2198" xlink:href="#a"/>
<use transform="matrix(.96051 0 0 .96051 54.001 823.84)" stroke-width="1.0411" xlink:href="#a"/>
<use transform="matrix(.89773 0 0 .89773 585.4 945.23)" stroke-width="1.1139" xlink:href="#a"/>
<use transform="matrix(.95419 0 0 .95419 371.48 950.39)" stroke-width="1.048" xlink:href="#a"/>
<use transform="matrix(.85195 0 0 .85195 -55.164 968.35)" stroke-width="1.1738" xlink:href="#a"/>
<use transform="matrix(1.0044 0 0 1.0044 -60.167 941.32)" stroke-width=".99566" xlink:href="#a"/>
<use transform="matrix(.95845 0 0 .95845 120.67 1046.8)" stroke-width="1.0434" xlink:href="#a"/>
<use transform="matrix(1.0257 0 0 1.0257 386.81 1156.3)" stroke-width=".97491" xlink:href="#a"/>
<use transform="matrix(.90609 0 0 .90609 218.35 1124.5)" stroke-width="1.1036" xlink:href="#a"/>
<use transform="matrix(.90283 0 0 .90283 187.35 1169)" stroke-width="1.1076" xlink:href="#a"/>
<use transform="matrix(1.0608 0 0 1.0608 -146.73 870.31)" stroke-width=".94273" xlink:href="#a"/>
<use transform="matrix(1.1428 0 0 1.1428 429.7 481.95)" stroke-width=".87507" xlink:href="#a"/>
<use transform="matrix(1.1463 0 0 1.1463 454.79 478.4)" stroke-width=".87235" xlink:href="#a"/>
<use transform="matrix(.82458 0 0 .82458 83.325 439)" stroke-width="1.2127" xlink:href="#a"/>
<use transform="matrix(.96333 0 0 .96333 310.69 202.91)" stroke-width="1.0381" xlink:href="#a"/>
<use transform="matrix(1.1811 0 0 1.1811 -4.4617 31.826)" stroke-width=".84665" xlink:href="#a"/>
<use transform="matrix(1.1458 0 0 1.1458 -176.02 -169.91)" stroke-width=".87279" xlink:href="#a"/>
<use transform="matrix(1.0984 0 0 1.0984 -151.68 -104.67)" stroke-width=".91044" xlink:href="#a"/>
<use transform="matrix(1.0857 0 0 1.0857 -146.19 -140.43)" stroke-width=".92105" xlink:href="#a"/>
<use transform="matrix(.9994 0 0 .9994 -8.8662 -100.96)" stroke-width="1.0006" xlink:href="#a"/>
<use transform="matrix(.87823 0 0 .87823 333.67 -54.986)" stroke-width="1.1386" xlink:href="#a"/>
<use transform="matrix(1.1552 0 0 1.1552 -7.5767 -50.482)" stroke-width=".86568" xlink:href="#a"/>
<use transform="matrix(1.0225 0 0 1.0225 152.71 -108.93)" stroke-width=".97799" xlink:href="#a"/>
<use transform="matrix(1.0231 0 0 1.0231 100.71 -76.868)" stroke-width=".97739" xlink:href="#a"/>
<use transform="matrix(.97815 0 0 .97815 518.21 -3.4827)" stroke-width="1.0223" xlink:href="#a"/>
<use transform="matrix(1.0978 0 0 1.0978 349.18 -40.307)" stroke-width=".91092" xlink:href="#a"/>
<use transform="matrix(.98258 0 0 .98258 515.18 -76.259)" stroke-width="1.0177" xlink:href="#a"/>
<use transform="matrix(1.123 0 0 1.123 -183.13 -146.41)" stroke-width=".89048" xlink:href="#a"/>
<use transform="matrix(1.0847 0 0 1.0847 -114.36 -106.53)" stroke-width=".92195" xlink:href="#a"/>
<use transform="matrix(.8821 0 0 .8821 69.366 -76.806)" stroke-width="1.1337" xlink:href="#a"/>
<use transform="matrix(1.1508 0 0 1.1508 554.96 -115.23)" stroke-width=".869" xlink:href="#a"/>
<use transform="matrix(.92306 0 0 .92306 -56.141 -49.561)" stroke-width="1.0834" xlink:href="#a"/>
<use transform="matrix(1.0613 0 0 1.0613 192.65 -11.39)" stroke-width=".94227" xlink:href="#a"/>
<use transform="matrix(1.0848 0 0 1.0848 447.3 17.018)" stroke-width=".92179" xlink:href="#a"/>
<use transform="matrix(1.1949 0 0 1.1949 246.52 -6.5074)" stroke-width=".83689" xlink:href="#a"/>
<use transform="matrix(.83989 0 0 .83989 175.55 37.525)" stroke-width="1.1906" xlink:href="#a"/>
<use transform="matrix(.92232 0 0 .92232 519.42 117.06)" stroke-width="1.0842" xlink:href="#a"/>
<use transform="matrix(1.0836 0 0 1.0836 570.24 101.09)" stroke-width=".92288" xlink:href="#a"/>
<use transform="matrix(.84118 0 0 .84118 53.477 88.291)" stroke-width="1.1888" xlink:href="#a"/>
<use transform="matrix(.83735 0 0 .83735 -3.2306 83.764)" stroke-width="1.1942" xlink:href="#a"/>
<use transform="matrix(.84689 0 0 .84689 -42.928 86.736)" stroke-width="1.1808" xlink:href="#a"/>
<use transform="matrix(1.0442 0 0 1.0442 486.21 118.08)" stroke-width=".95764" xlink:href="#a"/>
<use transform="matrix(1.1996 0 0 1.1996 9.5505 82.916)" stroke-width=".83358" xlink:href="#a"/>
<use transform="matrix(.99894 0 0 .99894 -142.25 103.3)" stroke-width="1.0011" xlink:href="#a"/>
<use transform="matrix(1.0735 0 0 1.0735 508.6 177.1)" stroke-width=".93154" xlink:href="#a"/>
<use transform="matrix(1.0705 0 0 1.0705 72.145 118.62)" stroke-width=".9341" xlink:href="#a"/>
<use transform="matrix(1.014 0 0 1.014 292.63 202.19)" stroke-width=".98623" xlink:href="#a"/>
<use transform="matrix(.95343 0 0 .95343 498.74 254.97)" stroke-width="1.0488" xlink:href="#a"/>
<use transform="matrix(.8613 0 0 .8613 273.97 267.6)" stroke-width="1.161" xlink:href="#a"/>
<use transform="matrix(1.1249 0 0 1.1249 -57.425 171.57)" stroke-width=".889" xlink:href="#a"/>
<use transform="matrix(1.1884 0 0 1.1884 545.41 195.56)" stroke-width=".8415" xlink:href="#a"/>
<use transform="matrix(.88395 0 0 .88395 537.69 329.13)" stroke-width="1.1313" xlink:href="#a"/>
<use transform="matrix(.85436 0 0 .85436 -43.372 271.96)" stroke-width="1.1705" xlink:href="#a"/>
<use transform="matrix(1.1085 0 0 1.1085 192.18 232.76)" stroke-width=".90214" xlink:href="#a"/>
<use transform="matrix(1.1709 0 0 1.1709 36.35 233.63)" stroke-width=".85408" xlink:href="#a"/>
<use transform="matrix(1.1377 0 0 1.1377 178.04 382.5)" stroke-width=".87893" xlink:href="#a"/>
<use transform="matrix(1.0919 0 0 1.0919 33.417 354.07)" stroke-width=".91584" xlink:href="#a"/>
<use transform="matrix(.82398 0 0 .82398 255.74 433.33)" stroke-width="1.2136" xlink:href="#a"/>
<use transform="matrix(1.1821 0 0 1.1821 541.13 457.65)" stroke-width=".84594" xlink:href="#a"/>
<use transform="matrix(.85042 0 0 .85042 -54.628 373.44)" stroke-width="1.1759" xlink:href="#a"/>
<use transform="matrix(1.0933 0 0 1.0933 515.17 498.06)" stroke-width=".91469" xlink:href="#a"/>
<use transform="matrix(.84204 0 0 .84204 480.99 568.06)" stroke-width="1.1876" xlink:href="#a"/>
<use transform="matrix(1.1269 0 0 1.1269 365.36 575.12)" stroke-width=".8874" xlink:href="#a"/>
<use transform="matrix(1.1117 0 0 1.1117 19.478 557.9)" stroke-width=".89952" xlink:href="#a"/>
<use transform="matrix(1.1462 0 0 1.1462 -4.8816 495.1)" stroke-width=".87247" xlink:href="#a"/>
<use transform="matrix(.90543 0 0 .90543 351.93 592.64)" stroke-width="1.1044" xlink:href="#a"/>
<use transform="matrix(1.173 0 0 1.173 -.4152 490.31)" stroke-width=".85252" xlink:href="#a"/>
<use transform="matrix(1.1534 0 0 1.1534 390.45 530.38)" stroke-width=".86704" xlink:href="#a"/>
<use transform="matrix(.84989 0 0 .84989 522.63 607.94)" stroke-width="1.1766" xlink:href="#a"/>
<use transform="matrix(.80438 0 0 .80438 -119.97 479.16)" stroke-width="1.2432" xlink:href="#a"/>
<use transform="matrix(1.095 0 0 1.095 372.71 529.06)" stroke-width=".91324" xlink:href="#a"/>
<use transform="matrix(.81711 0 0 .81711 159.66 524.21)" stroke-width="1.2238" xlink:href="#a"/>
<use transform="matrix(.84712 0 0 .84712 13.716 530.64)" stroke-width="1.1805" xlink:href="#a"/>
<use transform="matrix(1.1151 0 0 1.1151 -128.47 483.5)" stroke-width=".89677" xlink:href="#a"/>
<use transform="matrix(1.1274 0 0 1.1274 235.03 564.92)" stroke-width=".88697" xlink:href="#a"/>
<use transform="matrix(1.1028 0 0 1.1028 -181.62 558.13)" stroke-width=".9068" xlink:href="#a"/>
<use transform="matrix(1.1174 0 0 1.1174 352.45 618.8)" stroke-width=".89496" xlink:href="#a"/>
<use transform="matrix(.85788 0 0 .85788 545.21 725.15)" stroke-width="1.1657" xlink:href="#a"/>
<use transform="matrix(.81063 0 0 .81063 442.56 704.26)" stroke-width="1.2336" xlink:href="#a"/>
<use transform="matrix(.88793 0 0 .88793 392.46 664.17)" stroke-width="1.1262" xlink:href="#a"/>
<use transform="matrix(.93767 0 0 .93767 -106.16 557.65)" stroke-width="1.0665" xlink:href="#a"/>
<use transform="matrix(1.1667 0 0 1.1667 -112.07 446.78)" stroke-width=".8571" xlink:href="#a"/>
<use transform="matrix(1.1263 0 0 1.1263 497.23 578.06)" stroke-width=".88788" xlink:href="#a"/>
<use transform="matrix(1.0164 0 0 1.0164 54.355 553.57)" stroke-width=".98387" xlink:href="#a"/>
<use transform="matrix(1.1108 0 0 1.1108 -132.28 557.77)" stroke-width=".90022" xlink:href="#a"/>
<use transform="matrix(.92811 0 0 .92811 596.34 760.85)" stroke-width="1.0775" xlink:href="#a"/>
<use transform="matrix(1.0025 0 0 1.0025 338.42 680.07)" stroke-width=".9975" xlink:href="#a"/>
<use transform="matrix(1.1096 0 0 1.1096 209.64 628.08)" stroke-width=".90125" xlink:href="#a"/>
<use transform="matrix(1.1644 0 0 1.1644 19.114 643.99)" stroke-width=".8588" xlink:href="#a"/>
<use transform="matrix(.92865 0 0 .92865 14.979 663.91)" stroke-width="1.0768" xlink:href="#a"/>
<use transform="matrix(.99339 0 0 .99339 536.24 761.83)" stroke-width="1.0066" xlink:href="#a"/>
<use transform="matrix(1.1824 0 0 1.1824 218.29 718.58)" stroke-width=".84576" xlink:href="#a"/>
<use transform="matrix(1.144 0 0 1.144 61.12 685.5)" stroke-width=".87411" xlink:href="#a"/>
<use transform="matrix(.90842 0 0 .90842 397.23 780.93)" stroke-width="1.1008" xlink:href="#a"/>
<use transform="matrix(.80654 0 0 .80654 570.28 814.06)" stroke-width="1.2399" xlink:href="#a"/>
<use transform="matrix(1.1479 0 0 1.1479 -6.8817 675.88)" stroke-width=".87115" xlink:href="#a"/>
<use transform="matrix(.96112 0 0 .96112 -1.1693 736.18)" stroke-width="1.0404" xlink:href="#a"/>
<use transform="matrix(.99016 0 0 .99016 65.28 771.98)" stroke-width="1.0099" xlink:href="#a"/>
<use transform="matrix(.96169 0 0 .96169 132.66 791.81)" stroke-width="1.0398" xlink:href="#a"/>
<use transform="matrix(.85238 0 0 .85238 -100.6 818.93)" stroke-width="1.1732" xlink:href="#a"/>
<use transform="matrix(1.0783 0 0 1.0783 68.787 812.85)" stroke-width=".92734" xlink:href="#a"/>
<use transform="matrix(.9909 0 0 .9909 -4.4327 796.3)" stroke-width="1.0092" xlink:href="#a"/>
<use transform="matrix(.85834 0 0 .85834 406.44 849.59)" stroke-width="1.165" xlink:href="#a"/>
<use transform="matrix(.88049 0 0 .88049 548.87 865.03)" stroke-width="1.1357" xlink:href="#a"/>
<use transform="matrix(.932 0 0 .932 7.9294 817.41)" stroke-width="1.073" xlink:href="#a"/>
<use transform="matrix(1.1952 0 0 1.1952 432.56 756.93)" stroke-width=".83665" xlink:href="#a"/>
<use transform="matrix(.98711 0 0 .98711 585.94 912.77)" stroke-width="1.013" xlink:href="#a"/>
<use transform="matrix(.95117 0 0 .95117 484.83 904.92)" stroke-width="1.0513" xlink:href="#a"/>
<use transform="matrix(.90068 0 0 .90068 427.73 977.83)" stroke-width="1.1103" xlink:href="#a"/>
<use transform="matrix(.83127 0 0 .83127 254.23 967.18)" stroke-width="1.203" xlink:href="#a"/>
<use transform="matrix(1.1094 0 0 1.1094 217.65 981.4)" stroke-width=".90138" xlink:href="#a"/>
<use transform="matrix(1.0108 0 0 1.0108 509.08 1015.3)" stroke-width=".98934" xlink:href="#a"/>
<use transform="matrix(1.0363 0 0 1.0363 259.67 1050.5)" stroke-width=".96497" xlink:href="#a"/>
<use transform="matrix(.94045 0 0 .94045 205.93 1089.7)" stroke-width="1.0633" xlink:href="#a"/>
<use transform="matrix(.826 0 0 .826 217.77 1163.5)" stroke-width="1.2106" xlink:href="#a"/>
<use transform="matrix(1.1268 0 0 1.1268 434.59 1162.1)" stroke-width=".88751" xlink:href="#a"/>
<use transform="matrix(.81342 0 0 .81342 -79.401 1156.1)" stroke-width="1.2294" xlink:href="#a"/>
<use transform="matrix(.96257 0 0 .96257 130.75 1146.7)" stroke-width="1.0389" xlink:href="#a"/>
<use transform="matrix(.84584 0 0 .84584 296.87 1019.1)" stroke-width="1.1823" xlink:href="#a"/>
<use transform="matrix(.99374 0 0 .99374 483.66 925.3)" stroke-width="1.0063" xlink:href="#a"/>
<use transform="matrix(1.1095 0 0 1.1095 388.89 718.31)" stroke-width=".90129" xlink:href="#a"/>
<use transform="matrix(.94664 0 0 .94664 2.7412 483.7)" stroke-width="1.0564" xlink:href="#a"/>
<use transform="matrix(.91385 0 0 .91385 47.025 525.3)" stroke-width="1.0943" xlink:href="#a"/>
<use transform="matrix(1.011 0 0 1.011 332.59 550.63)" stroke-width=".98912" xlink:href="#a"/>
<use transform="matrix(1.1617 0 0 1.1617 113.48 329.44)" stroke-width=".8608" xlink:href="#a"/>
<use transform="matrix(.84495 0 0 .84495 157.99 371.11)" stroke-width="1.1835" xlink:href="#a"/>
<use transform="matrix(.90686 0 0 .90686 145.04 330.8)" stroke-width="1.1027" xlink:href="#a"/>
<use transform="matrix(1.1811 0 0 1.1811 451.57 335.72)" stroke-width=".84668" xlink:href="#a"/>
<use transform="matrix(1.1319 0 0 1.1319 125.65 280.85)" stroke-width=".8835" xlink:href="#a"/>
<use transform="matrix(.8352 0 0 .8352 439.33 370.97)" stroke-width="1.1973" xlink:href="#a"/>
<use transform="matrix(1.0936 0 0 1.0936 504.38 63.342)" stroke-width=".91439" xlink:href="#a"/>
<use transform="matrix(1.0351 0 0 1.0351 219.44 -7.0482)" stroke-width=".96611" xlink:href="#a"/>
<use transform="matrix(.81214 0 0 .81214 35.899 -25.681)" stroke-width="1.2313" xlink:href="#a"/>
<use transform="matrix(.93917 0 0 .93917 73.857 -35.463)" stroke-width="1.0648" xlink:href="#a"/>
<use transform="matrix(.82098 0 0 .82098 210.19 -37.196)" stroke-width="1.2181" xlink:href="#a"/>
<use transform="matrix(1.0995 0 0 1.0995 278.99 -118.36)" stroke-width=".90949" xlink:href="#a"/>
<use transform="matrix(.92053 0 0 .92053 112.33 31.8)" stroke-width="1.0863" xlink:href="#a"/>
<use transform="matrix(.85542 0 0 .85542 87.451 -40.464)" stroke-width="1.169" xlink:href="#a"/>
<use transform="matrix(1.0564 0 0 1.0564 69.823 -54.753)" stroke-width=".94662" xlink:href="#a"/>
<use transform="matrix(.8221 0 0 .8221 137.12 119.55)" stroke-width="1.2164" xlink:href="#a"/>
<use transform="matrix(.81882 0 0 .81882 -139.07 66.788)" stroke-width="1.2213" xlink:href="#a"/>
<use transform="matrix(1.112 0 0 1.112 25.561 45.566)" stroke-width=".89929" xlink:href="#a"/>
<use transform="matrix(.99016 0 0 .99016 159.33 139.42)" stroke-width="1.0099" xlink:href="#a"/>
<use transform="matrix(.9526 0 0 .9526 -48.377 56.464)" stroke-width="1.0498" xlink:href="#a"/>
<use transform="matrix(1.053 0 0 1.053 481.59 52.007)" stroke-width=".94971" xlink:href="#a"/>
<use transform="matrix(1.0447 0 0 1.0447 -1.464 -25.609)" stroke-width=".95726" xlink:href="#a"/>
<use transform="matrix(1.0995 0 0 1.0995 202.78 -14.158)" stroke-width=".9095" xlink:href="#a"/>
<use transform="matrix(.84916 0 0 .84916 601.84 64.28)" stroke-width="1.1776" xlink:href="#a"/>
<use transform="matrix(.9307 0 0 .9307 577.68 3.4592)" stroke-width="1.0745" xlink:href="#a"/>
<use transform="matrix(.80622 0 0 .80622 -12.615 -85.234)" stroke-width="1.2404" xlink:href="#a"/>
<use transform="matrix(1.1783 0 0 1.1783 -160.95 -172.44)" stroke-width=".8487" xlink:href="#a"/>
<use transform="matrix(1.0226 0 0 1.0226 253.95 -5.2669)" stroke-width=".9779" xlink:href="#a"/>
<use transform="matrix(.97081 0 0 .97081 351.85 -74.826)" stroke-width="1.0301" xlink:href="#a"/>
<use transform="matrix(.82178 0 0 .82178 77.445 -108.54)" stroke-width="1.2169" xlink:href="#a"/>
<use transform="matrix(.85317 0 0 .85317 403.82 187.14)" stroke-width="1.1721" xlink:href="#a"/>
<use transform="matrix(1.0652 0 0 1.0652 493.07 216.08)" stroke-width=".93876" xlink:href="#a"/>
<use transform="matrix(.89197 0 0 .89197 141.98 247.39)" stroke-width="1.1211" xlink:href="#a"/>
<use transform="matrix(1.1018 0 0 1.1018 201.65 219.13)" stroke-width=".90763" xlink:href="#a"/>
<use transform="matrix(.871 0 0 .871 527.25 322.93)" stroke-width="1.1481" xlink:href="#a"/>
<use transform="matrix(1.1876 0 0 1.1876 382.65 -181.89)" stroke-width=".84205" xlink:href="#a"/>
<use transform="matrix(.90881 0 0 .90881 430.23 -94.735)" stroke-width="1.1004" xlink:href="#a"/>
<use transform="matrix(.86709 0 0 .86709 400.43 -110.78)" stroke-width="1.1533" xlink:href="#a"/>
<use transform="matrix(1.05 0 0 1.05 403.19 -117.84)" stroke-width=".95236" xlink:href="#a"/>
<use transform="matrix(1.1947 0 0 1.1947 221.07 -140.72)" stroke-width=".837" xlink:href="#a"/>
<use transform="matrix(1.4563 0 0 1.4563 305.85 -180.3)" stroke-width=".68667" xlink:href="#a"/>
<use transform="matrix(1.1257 0 0 1.1257 212.07 -127.38)" stroke-width=".88835" xlink:href="#a"/>
<use transform="matrix(.97624 0 0 .97624 134.2 -136.72)" stroke-width="1.0243" xlink:href="#a"/>
<use transform="matrix(.95093 0 0 .95093 230.72 -131.47)" stroke-width="1.0516" xlink:href="#a"/>
<use transform="matrix(1.2543 0 0 1.2543 -72.825 -189.84)" stroke-width=".79724" xlink:href="#a"/>
<use transform="matrix(1.0425 0 0 1.0425 301.62 -67.881)" stroke-width=".9592" xlink:href="#a"/>
<use transform="matrix(1.0858 0 0 1.0858 467.37 -146.84)" stroke-width=".92099" xlink:href="#a"/>
<use transform="matrix(.82551 0 0 .82551 182.02 -76.87)" stroke-width="1.2114" xlink:href="#a"/>
<use transform="matrix(1.0923 0 0 1.0923 273.45 -114.47)" stroke-width=".91554" xlink:href="#a"/>
<use transform="matrix(1.0051 0 0 1.0051 209.05 -119.99)" stroke-width=".99494" xlink:href="#a"/>
<use transform="matrix(.68261 0 0 .68261 481.53 -9.3226)" stroke-width="1.465" xlink:href="#a"/>
<use transform="matrix(1.057 0 0 1.057 80.474 -73.679)" stroke-width=".94612" xlink:href="#a"/>
<use transform="matrix(.63959 0 0 .63959 537.98 31.456)" stroke-width="1.5635" xlink:href="#a"/>
<use transform="matrix(1.485 0 0 1.485 -63.215 -127.75)" stroke-width=".67342" xlink:href="#a"/>
<use transform="matrix(1.1867 0 0 1.1867 -52.551 -78.266)" stroke-width=".84267" xlink:href="#a"/>
<use transform="matrix(1.0441 0 0 1.0441 369.34 10.473)" stroke-width=".95779" xlink:href="#a"/>
<use transform="matrix(1.0782 0 0 1.0782 178.91 -25.558)" stroke-width=".92746" xlink:href="#a"/>
<use transform="matrix(1.1324 0 0 1.1324 263.8 19.354)" stroke-width=".88307" xlink:href="#a"/>
<use transform="matrix(.92906 0 0 .92906 249.31 45.318)" stroke-width="1.0764" xlink:href="#a"/>
<use transform="matrix(1.4188 0 0 1.4188 -235.85 -21.524)" stroke-width=".70481" xlink:href="#a"/>
<use transform="matrix(1.2959 0 0 1.2959 328.08 36.844)" stroke-width=".77167" xlink:href="#a"/>
<use transform="matrix(1.2475 0 0 1.2475 18.857 69.758)" stroke-width=".80157" xlink:href="#a"/>
<use transform="matrix(1.4624 0 0 1.4624 474.32 70.199)" stroke-width=".68381" xlink:href="#a"/>
<use transform="matrix(1.3582 0 0 1.3582 253.22 35.089)" stroke-width=".73625" xlink:href="#a"/>
<use transform="matrix(.62416 0 0 .62416 560.32 186.27)" stroke-width="1.6022" xlink:href="#a"/>
<use transform="matrix(1.067 0 0 1.067 -10.788 132.06)" stroke-width=".93722" xlink:href="#a"/>
<use transform="matrix(1.113 0 0 1.113 6.1003 111.84)" stroke-width=".89848" xlink:href="#a"/>
<use transform="matrix(.71596 0 0 .71596 136.57 142.68)" stroke-width="1.3967" xlink:href="#a"/>
<use transform="matrix(1.2068 0 0 1.2068 241.08 178.3)" stroke-width=".82867" xlink:href="#a"/>
<use transform="matrix(.83096 0 0 .83096 135.52 213.3)" stroke-width="1.2034" xlink:href="#a"/>
<use transform="matrix(.64619 0 0 .64619 126.29 296.47)" stroke-width="1.5475" xlink:href="#a"/>
<use transform="matrix(1.2048 0 0 1.2048 217.07 241.64)" stroke-width=".83002" xlink:href="#a"/>
<use transform="matrix(1.1074 0 0 1.1074 398.35 358.2)" stroke-width=".90302" xlink:href="#a"/>
<use transform="matrix(1.2075 0 0 1.2075 -27.768 333.77)" stroke-width=".82818" xlink:href="#a"/>
<use transform="matrix(.50729 0 0 .50729 187.66 469.49)" stroke-width="1.9713" xlink:href="#a"/>
<use transform="matrix(.84085 0 0 .84085 291.69 432.2)" stroke-width="1.1893" xlink:href="#a"/>
<use transform="matrix(.99541 0 0 .99541 .11126 92.14)" stroke-width="1.0046" xlink:href="#a"/>
<use transform="matrix(1.2137 0 0 1.2137 147.27 -38.048)" stroke-width=".82396" xlink:href="#a"/>
<use transform="matrix(.85667 0 0 .85667 -65.182 -35.075)" stroke-width="1.1673" xlink:href="#a"/>
<use transform="matrix(1.2041 0 0 1.2041 -144.27 -63.911)" stroke-width=".83047" xlink:href="#a"/>
<use transform="matrix(.51754 0 0 .51754 64.797 .42137)" stroke-width="1.9322" xlink:href="#a"/>
<use transform="matrix(1.3475 0 0 1.3475 83.436 -167.38)" stroke-width=".74212" xlink:href="#a"/>
<use transform="matrix(1.1666 0 0 1.1666 41.905 -172.58)" stroke-width=".85716" xlink:href="#a"/>
<use transform="matrix(1.4185 0 0 1.4185 254.14 -158.38)" stroke-width=".70497" xlink:href="#a"/>
<use transform="matrix(.76824 0 0 .76824 496.23 -55.385)" stroke-width="1.3017" xlink:href="#a"/>
<use transform="matrix(.99113 0 0 .99113 410.04 -84.727)" stroke-width="1.009" xlink:href="#a"/>
<use transform="matrix(.82826 0 0 .82826 435.99 -90.734)" stroke-width="1.2074" xlink:href="#a"/>
<use transform="matrix(1.078 0 0 1.078 -187.05 -147.66)" stroke-width=".92762" xlink:href="#a"/>
<use transform="matrix(1.4828 0 0 1.4828 136.95 -120.95)" stroke-width=".67439" xlink:href="#a"/>
<use transform="matrix(1.1984 0 0 1.1984 144.38 -62.609)" stroke-width=".83447" xlink:href="#a"/>
</svg>
